<?xml version="1.0" encoding="UTF-8" standalone="no"?>
<!DOCTYPE svg PUBLIC "-//W3C//DTD SVG 1.1//EN"
 "http://www.w3.org/Graphics/SVG/1.1/DTD/svg11.dtd">
<!-- Generated by graphviz version 2.44.0 (0)
 -->
<!-- Title: flowchart Pages: 1 -->
<svg width="227pt" height="307pt"
 viewBox="0.00 0.00 227.24 307.20" xmlns="http://www.w3.org/2000/svg" xmlns:xlink="http://www.w3.org/1999/xlink">
<g id="graph0" class="graph" transform="scale(1 1) rotate(0) translate(4 303.2)">
<title>flowchart</title>
<polygon fill="white" stroke="transparent" points="-4,4 -4,-303.2 223.24,-303.2 223.24,4 -4,4"/>
<!-- v0 -->
<g id="node1" class="node">
<title>v0</title>
<ellipse fill="black" stroke="black" cx="127.6" cy="-280.6" rx="3.6" ry="3.6"/>
<text text-anchor="middle" x="62" y="-288" font-family="Times-Roman" font-size="14.00">Channel.fromPath</text>
</g>
<!-- v1 -->
<g id="node2" class="node">
<title>v1</title>
<ellipse fill="none" stroke="black" cx="127.6" cy="-208" rx="40.09" ry="18"/>
<text text-anchor="middle" x="127.6" y="-204.3" font-family="Times-Roman" font-size="14.00">getIDs</text>
</g>
<!-- v0&#45;&gt;v1 -->
<g id="edge1" class="edge">
<title>v0&#45;&gt;v1</title>
<path fill="none" stroke="black" d="M127.6,-276.92C127.6,-270.25 127.6,-252.3 127.6,-236.53"/>
<polygon fill="black" stroke="black" points="131.1,-236.13 127.6,-226.13 124.1,-236.13 131.1,-236.13"/>
<text text-anchor="middle" x="164.6" y="-247.8" font-family="Times-Roman" font-size="14.00">input_data</text>
</g>
<!-- v2 -->
<g id="node3" class="node">
<title>v2</title>
<ellipse fill="none" stroke="black" cx="77.6" cy="-135" rx="72.59" ry="18"/>
<text text-anchor="middle" x="77.6" y="-131.3" font-family="Times-Roman" font-size="14.00">getDuplicates</text>
</g>
<!-- v1&#45;&gt;v2 -->
<g id="edge2" class="edge">
<title>v1&#45;&gt;v2</title>
<path fill="none" stroke="black" d="M116,-190.53C109.85,-181.79 102.15,-170.86 95.26,-161.08"/>
<polygon fill="black" stroke="black" points="98.1,-159.03 89.48,-152.87 92.38,-163.06 98.1,-159.03"/>
</g>
<!-- v3 -->
<g id="node4" class="node">
<title>v3</title>
<ellipse fill="none" stroke="black" cx="127.6" cy="-62" rx="91.78" ry="18"/>
<text text-anchor="middle" x="127.6" y="-58.3" font-family="Times-Roman" font-size="14.00">removeDuplicates</text>
</g>
<!-- v1&#45;&gt;v3 -->
<g id="edge3" class="edge">
<title>v1&#45;&gt;v3</title>
<path fill="none" stroke="black" d="M140.5,-190.56C147.66,-180.37 155.86,-166.66 159.6,-153 163.83,-137.57 163.83,-132.43 159.6,-117 156.86,-107.02 151.75,-97.01 146.4,-88.36"/>
<polygon fill="black" stroke="black" points="149.26,-86.34 140.84,-79.91 143.41,-90.19 149.26,-86.34"/>
</g>
<!-- v2&#45;&gt;v3 -->
<g id="edge4" class="edge">
<title>v2&#45;&gt;v3</title>
<path fill="none" stroke="black" d="M89.45,-117.17C95.46,-108.63 102.9,-98.08 109.6,-88.56"/>
<polygon fill="black" stroke="black" points="112.59,-90.39 115.49,-80.2 106.87,-86.36 112.59,-90.39"/>
</g>
<!-- v4 -->
<g id="node5" class="node">
<title>v4</title>
<ellipse fill="none" stroke="black" cx="127.6" cy="-3.5" rx="3.5" ry="3.5"/>
<text text-anchor="middle" x="90.1" y="-10.8" font-family="Times-Roman" font-size="14.00">subscribe</text>
</g>
<!-- v3&#45;&gt;v4 -->
<g id="edge5" class="edge">
<title>v3&#45;&gt;v4</title>
<path fill="none" stroke="black" d="M127.6,-43.74C127.6,-35.16 127.6,-24.97 127.6,-17.12"/>
<polygon fill="black" stroke="black" points="131.1,-17.06 127.6,-7.06 124.1,-17.06 131.1,-17.06"/>
</g>
</g>
</svg>
